<svg width="150" height="150" viewBox="0 0 150 150" fill="none" xmlns="http://www.w3.org/2000/svg">
<path d="M126.79 71.2742L99.9525 55.5442C96.8336 53.7169 92.7095 52.7095 88.338 52.7095C83.9665 52.7095 79.9065 53.703 76.8059 55.5071L22.2508 87.2451C18.88 89.2067 17.0206 91.914 17.016 94.8692L17 103.795C16.9954 106.748 18.8457 109.462 22.2119 111.435L49.0498 127.165C52.1709 128.993 56.2951 130 60.6643 130C65.0334 130 69.0958 129.006 72.1963 127.202L126.751 95.4667C130.122 93.5051 131.982 90.7978 131.986 87.8426L132 78.9169C132.007 75.964 130.157 73.2497 126.788 71.2765L126.79 71.2742Z" fill="#FF4D00"/>
<path d="M22.9812 101.199L49.8191 116.929C55.782 120.424 65.4936 120.44 71.4657 116.964L76.1898 114.215L126.019 85.2257C129.005 83.4887 130.502 81.2006 130.505 78.9124C130.509 76.6242 129.021 74.3314 126.037 72.5852L99.199 56.8552C93.236 53.3604 83.5245 53.3442 77.5501 56.8204L27.7213 85.8093L22.9972 88.5583C20.0088 90.2953 18.5135 92.5835 18.5112 94.8717C18.5067 97.1598 19.9951 99.4526 22.9789 101.199H22.9812Z" fill="white"/>
<path d="M60.6823 120.067C56.4849 120.067 52.5394 119.108 49.567 117.366L22.7291 101.636C19.6835 99.8508 18.0073 97.4492 18.0142 94.8692C18.0165 92.2892 19.6996 89.8922 22.7497 88.1159L77.3049 56.378C80.2589 54.6595 84.1769 53.7146 88.34 53.7146C92.5031 53.7146 96.483 54.6734 99.4553 56.415L126.293 72.145C129.339 73.9306 131.015 76.3323 131.008 78.9122C131.006 81.4922 129.323 83.8892 126.273 85.6656L71.7198 117.403C68.7658 119.122 64.8477 120.067 60.6846 120.067H60.6823ZM88.34 54.7313C84.3487 54.7313 80.607 55.6299 77.8064 57.2603L23.2512 88.9982C20.5239 90.5847 19.0195 92.6714 19.0172 94.8738C19.0149 97.074 20.5102 99.1653 23.2352 100.761L50.0731 116.491C52.8943 118.145 56.6612 119.052 60.6846 119.052C64.708 119.052 68.4154 118.154 71.2183 116.523L125.771 84.7855C128.498 83.1991 130.003 81.1124 130.005 78.9122C130.007 76.7098 128.512 74.6208 125.789 73.0228L98.9492 57.2928C96.1303 55.6392 92.3611 54.7313 88.34 54.7313V54.7313Z" fill="#FF4D00"/>
<path d="M44.6988 104.237C43.0409 103.264 40.4121 103.197 38.6305 104.043C38.5069 104.101 38.3946 104.161 38.2824 104.226C38.1588 104.297 38.0466 104.371 37.9389 104.448C37.2795 104.927 36.9497 105.511 36.9497 106.095C36.9497 106.773 37.3894 107.452 38.2756 107.97C39.922 108.936 42.5234 109.006 44.3049 108.179C44.44 108.119 44.5683 108.054 44.6919 107.982C44.8041 107.917 44.9026 107.85 45.0079 107.781C45.6835 107.297 46.0224 106.704 46.0247 106.111C46.0247 105.432 45.585 104.754 44.6988 104.235V104.237Z" fill="white"/>
<path d="M41.4931 109.258C40.1924 109.258 38.9604 108.957 38.0262 108.411C37.0071 107.813 36.4484 106.991 36.4507 106.095C36.4507 105.331 36.8766 104.601 37.6483 104.038C37.7743 103.948 37.8979 103.867 38.0353 103.786C38.1613 103.714 38.2849 103.647 38.4223 103.582C40.2978 102.69 43.2197 102.783 44.9532 103.797C45.9699 104.395 46.5309 105.217 46.5264 106.113C46.5264 106.889 46.0913 107.628 45.3013 108.195C45.1387 108.304 45.0494 108.364 44.9463 108.425C44.8089 108.506 44.6646 108.577 44.5112 108.645C43.6594 109.041 42.5854 109.258 41.4954 109.258H41.4931ZM41.4794 103.962C40.5153 103.962 39.581 104.154 38.846 104.501C38.7337 104.552 38.6353 104.608 38.5345 104.666C38.4246 104.731 38.3261 104.798 38.2277 104.865C37.7331 105.226 37.456 105.666 37.4537 106.097C37.4537 106.616 37.8361 107.125 38.5299 107.533C39.3131 107.992 40.3642 108.244 41.4931 108.244C42.4411 108.244 43.3686 108.059 44.0967 107.718C44.2227 107.663 44.3326 107.605 44.4425 107.542C44.5273 107.494 44.6028 107.443 44.6784 107.392C45.2348 106.996 45.5211 106.549 45.5211 106.111C45.5211 105.592 45.1387 105.083 44.4448 104.675C43.6617 104.214 42.606 103.962 41.4748 103.962H41.4794Z" fill="#FF671D"/>
<path d="M103.861 64.331L113.259 69.8383C114.006 70.276 115.213 70.2807 115.964 69.8429C116.337 69.6252 116.525 69.3404 116.525 69.0532C116.525 68.7683 116.339 68.4812 115.966 68.2635L106.568 62.7561C105.822 62.3184 104.61 62.3184 103.864 62.7515C103.488 62.9692 103.303 63.254 103.303 63.5412C103.303 63.8261 103.491 64.1133 103.861 64.331V64.331Z" fill="white"/>
<path d="M114.619 70.6767C114.019 70.6767 113.449 70.5355 113.009 70.2784L103.612 64.771C103.094 64.47 102.799 64.0207 102.803 63.5389C102.803 63.0618 103.099 62.6149 103.616 62.3138C104.489 61.8043 105.95 61.8066 106.824 62.3184L116.222 67.8258C116.737 68.1292 117.031 68.5785 117.028 69.0579C117.028 69.535 116.733 69.9819 116.218 70.2853C115.78 70.5378 115.215 70.679 114.619 70.679V70.6767ZM105.212 62.9345C104.795 62.9345 104.395 63.0271 104.115 63.1915C103.886 63.3236 103.804 63.4579 103.804 63.5389C103.804 63.6432 103.925 63.7798 104.113 63.891L113.513 69.4006C113.795 69.5674 114.2 69.6623 114.619 69.6623C115.036 69.6623 115.434 69.5674 115.716 69.4053C115.943 69.2733 116.025 69.1366 116.025 69.0556C116.025 68.9745 115.945 68.8379 115.718 68.7035L106.321 63.1962C106.039 63.0294 105.636 62.9345 105.215 62.9345H105.212Z" fill="#FF671D"/>
<path d="M120.626 75.7349L93.788 60.0049C90.8065 58.2563 85.9518 58.2517 82.9635 59.9887L42.8898 83.3034L33.1348 88.9799C31.6394 89.8483 30.8906 90.9924 30.8906 92.1388C30.8906 93.2829 31.6326 94.427 33.121 95.3001L59.9589 111.03C62.9404 112.779 67.7996 112.786 70.788 111.049L118.265 83.4285L120.617 82.0598C122.11 81.1913 122.859 80.0472 122.861 78.9008C122.861 77.7567 122.119 76.6103 120.628 75.7349H120.626Z" fill="white"/>
<path d="M65.3905 112.853C63.2471 112.853 61.2297 112.362 59.7046 111.47L32.8667 95.7399C31.2638 94.802 30.3844 93.5236 30.3867 92.1386C30.3867 90.7537 31.2752 89.4753 32.8827 88.5396L82.7115 59.5507C84.2274 58.6684 86.2334 58.1843 88.3584 58.1843C90.4835 58.1843 92.5169 58.6753 94.0374 59.567L120.875 75.297C122.478 76.2372 123.362 77.5156 123.358 78.9029C123.355 80.2878 122.469 81.5663 120.862 82.4996L71.0329 111.488C69.5192 112.371 67.5133 112.855 65.3882 112.855L65.3905 112.853ZM88.3584 59.1987C86.4051 59.1987 84.5778 59.6364 83.213 60.4308L33.3842 89.4197C32.0996 90.1677 31.3897 91.1335 31.3897 92.1386C31.3897 93.1437 32.0927 94.1118 33.3728 94.8599L60.2107 110.59C61.5824 111.393 63.4235 111.836 65.3928 111.836C67.3461 111.836 69.1734 111.398 70.5382 110.606L120.367 81.6172C121.652 80.8715 122.357 79.9057 122.362 78.8983C122.362 77.8908 121.659 76.9251 120.376 76.1747L93.5382 60.4447C92.1666 59.6411 90.3301 59.1987 88.363 59.1987H88.3584Z" fill="#FF671D"/>
<path d="M126.021 85.2255L76.1923 114.214L71.4682 116.963C65.4938 120.44 55.7845 120.423 49.8193 116.929L22.9814 101.199C19.9999 99.4502 18.5115 97.1597 18.5137 94.8715L18.5 103.797C18.4954 106.085 19.9839 108.378 22.9677 110.124L49.8056 125.852C55.7685 129.347 65.4801 129.363 71.4545 125.887L76.1786 123.138L126.007 94.1489C128.996 92.412 130.491 90.1261 130.493 87.8356L130.507 78.9099C130.502 81.1981 129.007 83.4863 126.021 85.2232V85.2255Z" fill="white"/>
<path d="M60.6667 128.993C56.4716 128.993 52.5237 128.034 49.5514 126.292L22.7135 110.562C19.6679 108.777 17.994 106.373 17.9985 103.795L18.0123 94.8693C18.0123 94.5891 18.2367 94.3621 18.5138 94.3621C18.7909 94.3621 19.0153 94.5914 19.013 94.8716C19.0107 97.0718 20.506 99.1631 23.231 100.759L50.0689 116.489C52.8901 118.14 56.657 119.05 60.6781 119.05C64.6993 119.05 68.4112 118.152 71.2141 116.521L125.767 84.7833C128.494 83.1969 129.999 81.1102 130.001 78.91C130.001 78.6298 130.225 78.4028 130.502 78.4028C130.782 78.4028 131.004 78.6298 131.004 78.91L130.99 87.8357C130.986 90.4157 129.303 92.8151 126.252 94.5891L71.6973 126.325C68.7433 128.043 64.8252 128.988 60.6598 128.988L60.6667 128.993ZM19.0107 98.2251L18.9992 103.797C18.9992 105.997 20.4946 108.091 23.2173 109.685L50.0552 125.414C52.8764 127.068 56.6433 127.978 60.6644 127.978C64.6855 127.978 68.3975 127.08 71.2003 125.449L125.755 93.7136C128.483 92.1272 129.987 90.0428 129.992 87.8404L129.999 82.2682C129.2 83.5396 127.94 84.6976 126.271 85.668L71.7179 117.406C68.7639 119.124 64.8458 120.069 60.6804 120.069C56.5151 120.069 52.5375 119.11 49.5651 117.369L22.7272 101.639C21.0602 100.662 19.803 99.4989 19.0084 98.2251H19.0107Z" fill="#FF4D00"/>
<path d="M28.7722 76.9459C28.7722 78.2359 29.1981 79.6857 29.9653 81.0313C30.7301 82.3722 31.7583 83.4677 32.8597 84.1138L70.2198 105.916C70.3343 105.983 70.458 106.014 70.5793 106.014C70.6022 106.014 70.6228 106.007 70.6457 106.004C70.6686 106.004 70.6893 106.014 70.7099 106.014C70.8244 106.014 70.9389 105.986 71.0465 105.928L72.1617 105.33L100.662 88.6878C100.683 88.6786 100.706 88.6739 100.726 88.6624L111.269 82.5065C111.372 82.4463 111.45 82.3653 111.509 82.2726C112.334 81.4343 112.325 79.7343 111.418 78.1479C111.358 78.046 111.294 77.9487 111.23 77.8515C112.325 77.1335 112.416 75.253 111.422 73.5067C111.764 72.8675 111.951 72.0755 111.951 71.1699C111.951 69.2662 111.155 67.0684 109.845 65.2642L110.561 64.845C110.667 64.7825 110.749 64.6968 110.809 64.5972C111.539 63.8978 111.949 62.7954 111.949 61.4452C111.949 59.3145 110.935 56.7994 109.364 54.9235L110.559 54.2264C110.664 54.1638 110.747 54.0781 110.806 53.9786C111.537 53.2791 111.947 52.1767 111.947 50.8265C111.947 47.656 109.822 43.9319 107.106 42.3478H107.101L71.6556 21.6478C70.1603 20.7746 68.3009 20.7746 66.8055 21.6478L60.1693 25.5224C59.9129 25.5154 59.661 25.6428 59.5236 25.8836C59.361 26.1685 59.4137 26.5136 59.622 26.7429C59.4732 27.8754 59.2007 28.9477 58.9923 29.1584C56.8604 30.944 45.3673 36.8103 43.4666 37.7738C42.9697 37.5839 42.4957 37.3662 42.0377 37.1323C42.0217 37.0836 42.0034 37.035 41.9759 36.9887C41.7881 36.6598 41.3897 36.5394 41.0554 36.6922C40.7943 36.6807 40.5378 36.808 40.3981 37.0535C40.3936 37.0605 40.3936 37.0674 40.389 37.0744L31.3529 42.3501C30.6957 42.7369 30.0866 43.383 29.6355 44.1728C28.6211 45.9514 28.7081 47.7996 29.8233 48.5268C29.7592 48.6241 29.695 48.719 29.6355 48.8209C28.7127 50.4398 28.7012 52.1165 29.5485 52.9526C29.608 53.0429 29.6859 53.1216 29.7843 53.1795L30.5331 53.6173C30.1965 53.9508 29.8897 54.3445 29.6332 54.7891C28.6188 56.5678 28.7058 58.4159 29.821 59.1431C29.7569 59.2404 29.6927 59.3354 29.6332 59.4373C28.7104 61.0561 28.6989 62.7329 29.5462 63.5689C29.6057 63.6593 29.6836 63.738 29.7821 63.7959L30.0156 63.9325C29.8782 64.1155 29.75 64.3077 29.6332 64.5115C28.6188 66.2902 28.7058 68.1383 29.821 68.8655C29.7569 68.9628 29.6905 69.0601 29.6332 69.162C28.7287 70.7484 28.7172 72.4483 29.5416 73.2867C29.6012 73.3793 29.6813 73.4627 29.7821 73.5206L30.279 73.8101L30.2011 73.8564C30.1393 73.8912 30.0889 73.9375 30.0431 73.9861C29.2164 74.5605 28.7585 75.598 28.7608 76.9459H28.7722Z" fill="white"/>
<path d="M69.73 106.78L32.5966 85.1097L32.3103 84.9499L32.2852 84.9268C31.0692 84.188 29.9471 82.986 29.1159 81.5293C28.264 80.0355 27.7923 78.4097 27.79 76.9483C27.79 75.7093 28.1221 74.6485 28.7472 73.8704C27.7694 72.7495 27.7168 70.8342 28.5938 69.0416C27.7076 67.8605 27.7282 65.9637 28.7289 64.1318C27.7442 63.0039 27.6939 61.1372 28.5938 59.3192C27.687 58.1126 27.7305 56.1602 28.7953 54.2936C28.8777 54.15 28.9648 54.0087 29.0587 53.8698C28.9648 53.791 28.8823 53.7007 28.8068 53.6011C27.7488 52.4825 27.6732 50.5672 28.5938 48.7028C27.687 47.4962 27.7305 45.5439 28.7953 43.6772C29.3312 42.7393 30.0685 41.9634 30.87 41.491L39.716 36.3264C40.0045 35.9697 40.4213 35.7474 40.8792 35.7057C41.5914 35.488 42.3608 35.7613 42.7776 36.3866C43.0043 36.4954 43.2218 36.595 43.4348 36.6853C49.3107 33.6954 56.4759 29.8764 58.2552 28.4938C58.3399 28.2761 58.491 27.7272 58.6101 26.9653C58.3834 26.4673 58.4017 25.8837 58.6834 25.3904C58.9399 24.9411 59.3795 24.6377 59.8765 24.5543L66.3249 20.7886C68.1225 19.7371 70.3597 19.7371 72.1596 20.7886L107.573 41.4678L107.61 41.4886C110.651 43.265 112.943 47.2808 112.943 50.8312C112.943 52.3899 112.458 53.7308 111.574 54.6271C111.434 54.8193 111.262 54.9745 111.061 55.0926L110.836 55.2246C112.153 57.1468 112.943 59.4443 112.943 61.4499C112.943 63.0085 112.458 64.3495 111.574 65.2458C111.48 65.3754 111.37 65.4889 111.246 65.5862C112.32 67.3718 112.943 69.396 112.943 71.1723C112.943 72.0223 112.803 72.7958 112.529 73.4836C113.321 75.1696 113.282 76.9136 112.476 78.0206C113.374 79.8432 113.305 81.7933 112.281 82.9073C112.142 83.0995 111.97 83.2547 111.768 83.3705L101.226 89.5263C101.184 89.5494 101.141 89.5703 101.097 89.5911L72.6588 106.197L71.5138 106.813C71.2505 106.954 70.9459 107.03 70.6505 107.012C70.6276 107.012 70.607 107.012 70.5841 107.012C70.2864 107.012 69.991 106.933 69.7323 106.78H69.73ZM110.72 81.6798L110.816 81.5686C111.258 81.1193 111.288 79.9011 110.571 78.6459C110.534 78.5834 110.495 78.5255 110.456 78.4652L109.865 77.5597L110.699 77.0131C111.258 76.6472 111.34 75.348 110.573 74.0001L110.298 73.5184L110.559 73.0297C110.827 72.5271 110.969 71.8833 110.969 71.1653C110.969 69.4886 110.252 67.5015 109.055 65.8502L108.405 64.9539L110.01 64.016L110.044 63.9604L110.138 63.8724C110.676 63.3582 110.972 62.4944 110.972 61.4429C110.972 59.5786 110.049 57.2719 108.62 55.565L107.857 54.6549L110.01 53.3973L110.138 53.2514C110.676 52.7373 110.972 51.8734 110.972 50.8219C110.972 48.0335 109.037 44.6337 106.655 43.2233L71.1749 22.5047C69.9819 21.8076 68.5003 21.8099 67.3095 22.5047L60.6733 26.3793L60.6596 26.3886L60.6733 26.4025L60.6115 26.868C60.4695 27.9565 60.1947 29.36 59.7024 29.8579L59.636 29.9204C57.44 31.7616 46.1621 37.5214 43.9248 38.6585L43.5401 38.8554L43.1371 38.7002C42.6471 38.5126 42.1501 38.2903 41.612 38.0147L41.241 37.8271L41.1975 37.6905H41.1907L41.1357 37.7924L31.8615 43.2071L31.8318 43.2256C31.3325 43.529 30.8631 44.0385 30.5036 44.6661C29.7067 46.065 29.8143 47.3202 30.3708 47.6838L31.2066 48.2281L30.6112 49.1429C30.5746 49.2008 30.5357 49.2564 30.5036 49.3143C29.7525 50.632 29.812 51.8039 30.2517 52.237L30.325 52.3088L30.3502 52.3482L32.1638 53.4066L31.2409 54.3237C30.9524 54.6109 30.7051 54.9328 30.5059 55.2825C29.709 56.6813 29.8166 57.9366 30.3731 58.3002L31.2089 58.8444L30.6135 59.7592C30.5769 59.8171 30.5379 59.8727 30.5059 59.9306C29.7548 61.2484 29.8143 62.4203 30.254 62.8534L30.3273 62.9252L30.3525 62.9645L31.4883 63.6292L30.8219 64.5278C30.6937 64.7015 30.5906 64.8567 30.5036 65.0072C29.7067 66.406 29.8143 67.6636 30.3708 68.0249L31.2089 68.5715L30.6135 69.4816C30.5746 69.5395 30.5357 69.5974 30.5013 69.6577C29.7846 70.9152 29.812 72.1311 30.254 72.5827L30.325 72.6545L30.3479 72.6916L32.2623 73.8102L30.7853 74.6717L30.6135 74.806C30.0594 75.1905 29.7571 75.9501 29.7571 76.9437C29.7571 78.0623 30.1349 79.3361 30.8196 80.5334C31.4951 81.7169 32.3859 82.6757 33.3317 83.2384L33.4461 83.2963L33.469 83.3195L70.6368 105.011H70.6689L71.6902 104.462L110.722 81.6821L110.72 81.6798ZM30.7669 74.674L30.1418 74.0719L30.7669 74.674Z" fill="#818181"/>
<path d="M28.7722 76.9459C28.7722 78.2359 29.1981 79.6857 29.9653 81.0313C30.7301 82.3722 31.7583 83.4677 32.8597 84.1138L70.2198 105.916C70.3343 105.983 70.458 106.014 70.5793 106.014C70.6022 106.014 70.6228 106.007 70.6457 106.004C70.6686 106.004 70.6893 106.014 70.7099 106.014C70.8244 106.014 70.9389 105.986 71.0465 105.928L72.1617 105.33L100.662 88.6878C100.683 88.6786 100.706 88.6739 100.726 88.6624L111.269 82.5065C111.372 82.4463 111.45 82.3653 111.509 82.2726C112.334 81.4343 112.325 79.7343 111.418 78.1479C111.358 78.046 111.294 77.9487 111.23 77.8515C112.325 77.1335 112.416 75.253 111.422 73.5067C111.764 72.8675 111.951 72.0755 111.951 71.1699C111.951 69.2662 111.155 67.0684 109.845 65.2642L110.561 64.845C110.667 64.7825 110.749 64.6968 110.809 64.5972C111.539 63.8978 111.949 62.7954 111.949 61.4452C111.949 59.3145 110.935 56.7994 109.364 54.9235L110.559 54.2264C110.664 54.1638 110.747 54.0781 110.806 53.9786C111.537 53.2791 111.947 52.1767 111.947 50.8265C111.947 47.656 109.822 43.9319 107.106 42.3478H107.101L71.6556 21.6478C70.1603 20.7746 68.3009 20.7746 66.8055 21.6478L60.1693 25.5224C59.9129 25.5154 59.661 25.6428 59.5236 25.8836C59.361 26.1685 59.4137 26.5136 59.622 26.7429C59.4732 27.8754 59.2007 28.9477 58.9923 29.1584C56.8604 30.944 45.3673 36.8103 43.4666 37.7738C42.9697 37.5839 42.4957 37.3662 42.0377 37.1323C42.0217 37.0836 42.0034 37.035 41.9759 36.9887C41.7881 36.6598 41.3897 36.5394 41.0554 36.6922C40.7943 36.6807 40.5378 36.808 40.3981 37.0535C40.3936 37.0605 40.3936 37.0674 40.389 37.0744L31.3529 42.3501C30.6957 42.7369 30.0866 43.383 29.6355 44.1728C28.6211 45.9514 28.7081 47.7996 29.8233 48.5268C29.7592 48.6241 29.695 48.719 29.6355 48.8209C28.7127 50.4398 28.7012 52.1165 29.5485 52.9526C29.608 53.0429 29.6859 53.1216 29.7843 53.1795L30.5331 53.6173C30.1965 53.9508 29.8897 54.3445 29.6332 54.7891C28.6188 56.5678 28.7058 58.4159 29.821 59.1431C29.7569 59.2404 29.6927 59.3354 29.6332 59.4373C28.7104 61.0561 28.6989 62.7329 29.5462 63.5689C29.6057 63.6593 29.6836 63.738 29.7821 63.7959L30.0156 63.9325C29.8782 64.1155 29.75 64.3077 29.6332 64.5115C28.6188 66.2902 28.7058 68.1383 29.821 68.8655C29.7569 68.9628 29.6905 69.0601 29.6332 69.162C28.7287 70.7484 28.7172 72.4483 29.5416 73.2867C29.6012 73.3793 29.6813 73.4627 29.7821 73.5206L30.279 73.8101L30.2011 73.8564C30.1393 73.8912 30.0889 73.9375 30.0431 73.9861C29.2164 74.5605 28.7585 75.598 28.7608 76.9459H28.7722ZM71.8754 99.2C71.8502 98.5237 71.6396 97.7734 71.2434 97.0415C71.793 97.0415 72.3082 96.9072 72.7685 96.6385C72.828 96.6038 72.8807 96.5598 72.938 96.5204C72.9769 96.5065 73.0158 96.4949 73.0525 96.4741L110.397 74.667C110.816 75.642 110.733 76.4688 110.445 76.6379C110.442 76.6379 110.44 76.6425 110.435 76.6448C110.433 76.6448 110.429 76.6472 110.426 76.6495L109.444 77.2609L71.8777 99.2023L71.8754 99.2ZM32.0033 63.4045L30.753 62.675C30.7141 62.6379 30.6728 62.6055 30.6248 62.5777C30.295 62.3855 30.2332 61.3248 30.8927 60.1668C30.9453 60.0765 31.0026 59.9908 31.0598 59.9051L68.4016 81.7099C68.5161 81.777 68.6398 81.8071 68.7611 81.8071C69.0107 81.8071 69.2535 81.6774 69.3863 81.4435C69.5855 81.0961 69.4664 80.6492 69.1229 80.4477L37.9342 62.235C37.8815 62.1747 37.822 62.1192 37.7487 62.0752C37.5999 61.9871 37.5083 61.7139 37.5083 61.3572C37.5083 60.8477 37.6937 60.2293 38.0166 59.6642C38.2548 59.245 38.557 58.8791 38.8753 58.6128L68.8779 76.133C71.1106 77.4369 72.9975 80.7418 72.9975 83.3496C72.9975 84.4751 72.6586 85.2926 72.0449 85.6516C71.4312 86.0106 70.561 85.8971 69.597 85.3343C69.5649 85.3158 69.5328 85.3019 69.4985 85.2903L32.0811 63.4416C32.056 63.4254 32.0262 63.4161 32.001 63.4045H32.0033ZM74.3623 84.2991C74.4081 83.998 74.4402 83.6854 74.4402 83.3496C74.4402 81.0707 73.3387 78.5115 71.7151 76.6611C72.0884 76.6055 72.4433 76.4874 72.7685 76.2975C72.828 76.2627 72.8807 76.2187 72.938 76.1793C72.9769 76.1654 73.0158 76.1539 73.0525 76.133L88.5644 67.0753C90.0277 68.7127 90.9917 70.9661 90.9917 72.8536C90.9917 73.9444 90.6734 74.7388 90.0964 75.114L74.3646 84.2991H74.3623ZM31.8613 54.3862L37.6594 57.7721C37.3274 58.1033 37.0228 58.4947 36.7709 58.937C36.3587 59.6596 36.1229 60.4378 36.0839 61.1534L31.6094 58.541L30.6431 57.9388C30.6431 57.9388 30.6362 57.9365 30.6339 57.9342C30.6316 57.9342 30.6293 57.9296 30.627 57.9273C30.2973 57.735 30.2355 56.6743 30.895 55.5164C31.1629 55.0485 31.5064 54.6548 31.8636 54.3838L31.8613 54.3862ZM62.9402 25.5918C65.9056 27.4214 67.5383 29.7745 67.5383 32.2479C67.5383 34.814 65.7865 37.2527 62.6058 39.1101C56.0887 42.9152 45.7039 43.1074 38.7815 39.6983L41.1676 38.3065C41.8042 38.6446 42.4774 38.9457 43.1873 39.2027C43.256 39.2398 43.3315 39.2653 43.4094 39.2792C45.6169 40.0481 48.1037 40.4418 50.5975 40.4418C54.1904 40.4418 57.7855 39.6428 60.5197 38.0447C63.2951 36.4236 64.8248 34.2165 64.8248 31.8287C64.8248 29.786 63.7027 27.8754 61.6395 26.3515L62.9424 25.5895L62.9402 25.5918ZM59.9289 30.2747C60.4716 29.8208 60.783 28.6697 60.9571 27.6577C62.5303 28.8735 63.3821 30.3233 63.3821 31.831C63.3821 33.6745 62.1089 35.4347 59.7984 36.7849C55.9307 39.0429 50.2173 39.5733 45.4703 38.3898C49.1617 36.5 57.9664 31.919 59.9289 30.2747V30.2747ZM110.516 50.8265C110.516 51.9729 110.149 52.8229 109.51 53.1587C109.503 53.1633 109.497 53.168 109.49 53.1726L74.3669 73.6827C74.4127 73.3817 74.4447 73.069 74.4447 72.7332C74.4447 72.3302 74.1218 72.0037 73.7234 72.0037C73.325 72.0037 73.0021 72.3302 73.0021 72.7332C73.0021 73.8588 72.6632 74.6763 72.0495 75.0353C71.4358 75.3942 70.5679 75.2808 69.6015 74.718C69.5695 74.6994 69.5374 74.6856 69.5031 74.674L32.0857 52.8252C32.0582 52.809 32.0308 52.7997 32.0033 52.7882L30.753 52.0586C30.7141 52.0216 30.6728 51.9891 30.6248 51.9614C30.295 51.7691 30.2332 50.7084 30.8927 49.5504C30.9453 49.4601 31.0026 49.3744 31.0598 49.2887L68.4016 71.0935C68.5161 71.1607 68.6398 71.1908 68.7611 71.1908C69.0107 71.1908 69.2535 71.0611 69.3863 70.8272C69.5855 70.4798 69.4664 70.0328 69.1229 69.8313L31.6071 47.9246L30.6408 47.3225C30.6408 47.3225 30.6339 47.3202 30.6316 47.3179C30.6293 47.3155 30.627 47.3132 30.6248 47.3109C30.295 47.1187 30.2332 46.058 30.8927 44.9C31.2155 44.3349 31.6506 43.8648 32.0857 43.61L37.3022 40.5645C40.8928 42.5562 45.5092 43.559 50.1326 43.559C54.9094 43.559 59.6862 42.4983 63.3249 40.3723C66.9704 38.2439 68.9787 35.3582 68.9787 32.2479C68.9787 29.4433 67.3391 26.8216 64.3416 24.772L67.5337 22.9076C68.5848 22.2939 69.8924 22.2939 70.9411 22.9076L106.391 43.6077C108.624 44.9116 110.511 48.2164 110.511 50.8242L110.516 50.8265ZM110.516 61.4452C110.516 62.5916 110.149 63.4416 109.51 63.7774C109.503 63.782 109.497 63.7866 109.49 63.7913L92.3565 73.7962C92.4023 73.4975 92.4321 73.1871 92.4321 72.8559C92.4321 70.7229 91.4154 68.2055 89.8422 66.3296L108.093 55.6738C109.554 57.3112 110.516 59.5623 110.516 61.4475V61.4452ZM110.516 71.1676C110.516 72.314 110.149 73.164 109.51 73.4998C109.503 73.5044 109.497 73.509 109.49 73.5137L74.3669 94.0238C74.4127 93.7227 74.4447 93.4101 74.4447 93.0743C74.4447 92.6713 74.1218 92.3448 73.7234 92.3448C73.325 92.3448 73.0021 92.6713 73.0021 93.0743C73.0021 94.1998 72.6632 95.0174 72.0495 95.3763C71.4358 95.7353 70.5679 95.6218 69.6015 95.059C69.5695 95.0405 69.5374 95.0289 69.5054 95.015L32.088 73.1663H32.0834C32.0628 73.1524 32.0422 73.1431 32.0193 73.1339L32.0056 73.1269L30.7553 72.3974C30.7163 72.3603 30.6751 72.3279 30.627 72.3001C30.2973 72.1079 30.2355 71.0472 30.895 69.8892C30.9476 69.7989 31.0049 69.7109 31.0621 69.6252L68.4039 91.4299C68.5184 91.4971 68.6421 91.5272 68.7634 91.5272C69.013 91.5272 69.2558 91.3975 69.3886 91.1636C69.5878 90.8162 69.4687 90.3692 69.1252 90.1677L31.6094 68.2611L30.6431 67.6589C30.6431 67.6589 30.6362 67.6566 30.6339 67.6543C30.6316 67.6543 30.6293 67.6497 30.627 67.6473C30.2973 67.4551 30.2355 66.3944 30.895 65.2364C31.0117 65.0303 31.1468 64.8427 31.2911 64.6644L40.3386 69.9471C40.3592 69.9587 40.3798 69.9633 40.4027 69.9726L68.8825 86.6012C68.9237 86.6243 68.9672 86.6382 69.0085 86.6544C69.7824 87.0852 70.5427 87.3098 71.2457 87.3098C71.7953 87.3098 72.3105 87.1755 72.7708 86.9069C72.8303 86.8721 72.883 86.8281 72.9402 86.7888C72.9792 86.7749 73.0181 86.7633 73.0547 86.7424L90.694 76.441C90.7101 76.4341 90.7261 76.4295 90.7421 76.4202C90.7719 76.404 90.7971 76.3808 90.8246 76.3646L108.592 65.9891C109.769 67.5593 110.518 69.5325 110.518 71.1583L110.516 71.1676ZM71.9281 103.788C71.9098 103.04 71.6671 102.215 71.232 101.453C71.2045 101.405 71.1724 101.361 71.1427 101.312L72.67 100.416L110.012 78.6111C110.069 78.6968 110.126 78.7825 110.179 78.8751C110.841 80.0331 110.779 81.0915 110.447 81.286C110.399 81.3138 110.358 81.3463 110.319 81.3833L109.068 82.1128C109.041 82.1244 109.013 82.1337 108.986 82.1499L71.9281 103.788V103.788ZM30.2171 76.9413C30.2171 76.0612 30.4805 75.4012 30.9453 75.1325C31.401 74.8662 32.0834 74.9588 32.8231 75.3827C32.8368 75.3919 32.8483 75.4035 32.862 75.4104L68.7543 96.3699C69.1871 96.627 69.6176 97.0925 69.9382 97.6529C70.5977 98.8109 70.5381 99.8693 70.2061 100.064C70.1832 100.078 70.1626 100.092 70.1397 100.108C70.1374 100.108 70.0893 100.131 70.0572 100.112L33.8146 78.9492C33.4711 78.7477 33.0292 78.8659 32.8299 79.2156C32.6307 79.563 32.7475 80.0099 33.0933 80.2114L69.471 101.453C69.4848 101.472 69.4962 101.493 69.5099 101.509C69.684 101.71 69.842 101.935 69.9817 102.181C70.3045 102.746 70.49 103.364 70.49 103.874C70.49 104.059 70.4648 104.221 70.419 104.346L33.5833 82.8493C32.6971 82.3282 31.8567 81.4227 31.2155 80.2994C30.5721 79.1716 30.2171 77.9788 30.2149 76.9413H30.2171Z" fill="#989898"/>
</svg>
